<svg width="28" height="28" viewBox="0 0 28 28" fill="none" xmlns="http://www.w3.org/2000/svg">
<path d="M14 15.4142L5.70718 23.707C5.31666 24.0976 4.68349 24.0976 4.29297 23.707C3.90244 23.3165 3.90245 22.6833 4.29297 22.2928L12.5858 14L4.29289 5.70711C3.90237 5.31658 3.90237 4.68342 4.29289 4.29289C4.68342 3.90237 5.31658 3.90237 5.70711 4.29289L14 12.5858L22.293 4.29289C22.6835 3.90237 23.3167 3.90237 23.7072 4.29289C24.0977 4.68342 24.0977 5.31658 23.7072 5.70711L15.4143 14L23.7071 22.2928C24.0976 22.6833 24.0976 23.3165 23.7071 23.707C23.3166 24.0976 22.6834 24.0976 22.2929 23.707L14 15.4142Z" fill="#272B2F"/>
</svg>
