<svg width="66" height="64" viewBox="0 0 66 64" fill="none" xmlns="http://www.w3.org/2000/svg">
<path id="arrow1" fill-rule="evenodd" clip-rule="evenodd" d="M65.699 6.28486C66.0939 6.67089 66.1012 7.30402 65.7151 7.69898L42.3747 31.5792C42.3746 31.5793 42.3745 31.5794 42.3744 31.5795C42.1352 31.8255 42 32.1577 42 32.5044C42 32.8516 42.1352 33.1837 42.3742 33.4296C42.3743 33.4297 42.3745 33.4299 42.3747 33.4301L65.715 57.3009C66.1011 57.6958 66.094 58.3289 65.6991 58.715C65.3042 59.1011 64.6711 59.094 64.285 58.6991L40.943 34.8266L40.9414 34.8249C40.3371 34.2041 40 33.3707 40 32.5044C40 31.6385 40.3372 30.8051 40.9414 30.1843L40.9429 30.1828L64.2849 6.30102C64.6709 5.90606 65.304 5.89882 65.699 6.28486Z" />
<path id="arrow2" fill-rule="evenodd" clip-rule="evenodd" d="M45.699 6.28486C46.0939 6.67089 46.1012 7.30402 45.7151 7.69898L22.3747 31.5792C22.3746 31.5793 22.3745 31.5794 22.3744 31.5795C22.1352 31.8255 22 32.1577 22 32.5044C22 32.8516 22.1352 33.1837 22.3742 33.4296C22.3743 33.4297 22.3745 33.4299 22.3747 33.4301L45.715 57.3009C46.1011 57.6958 46.094 58.3289 45.6991 58.715C45.3042 59.1011 44.6711 59.094 44.285 58.6991L20.943 34.8266L20.9414 34.8249C20.3371 34.2041 20 33.3707 20 32.5044C20 31.6385 20.3372 30.8051 20.9414 30.1843L20.9429 30.1828L44.2849 6.30102C44.6709 5.90606 45.304 5.89882 45.699 6.28486Z" />
<path id="arrow3" fill-rule="evenodd" clip-rule="evenodd" d="M25.699 6.28486C26.0939 6.67089 26.1012 7.30402 25.7151 7.69898L2.37467 31.5792C2.37457 31.5793 2.37447 31.5794 2.37438 31.5795C2.13516 31.8255 2 32.1577 2 32.5044C2 32.8516 2.13515 33.1837 2.37416 33.4296C2.37433 33.4297 2.3745 33.4299 2.37467 33.4301L25.715 57.3009C26.1011 57.6958 26.094 58.3289 25.6991 58.715C25.3042 59.1011 24.6711 59.094 24.285 58.6991L0.943013 34.8266L0.941373 34.8249C0.337121 34.2041 7.10939e-07 33.3707 7.48805e-07 32.5044C7.86654e-07 31.6385 0.337197 30.8051 0.941373 30.1843L0.942878 30.1828L24.2849 6.30102C24.6709 5.90606 25.304 5.89882 25.699 6.28486Z" />
</svg>
