<svg width="16" height="16" viewBox="0 0 16 16" fill="none" xmlns="http://www.w3.org/2000/svg">
<path d="M16 8C16 12.4183 12.4183 16 8 16C3.58172 16 0 12.4183 0 8C0 3.58172 3.58172 0 8 0C12.4183 0 16 3.58172 16 8Z" fill="#47A985"/>
<path fill-rule="evenodd" clip-rule="evenodd" d="M12.2753 5.72471C12.5749 6.02433 12.5749 6.51011 12.2753 6.80973L8.03538 11.0496C7.73576 11.3493 7.24999 11.3493 6.95037 11.0496L4.22471 8.32398C3.9251 8.02436 3.9251 7.53858 4.22471 7.23897C4.52433 6.93935 5.01011 6.93935 5.30973 7.23897L7.49287 9.42211L11.1903 5.72471C11.4899 5.4251 11.9757 5.4251 12.2753 5.72471Z" fill="white"/>
</svg>
