<svg width="64" height="64" viewBox="0 0 64 64" fill="none" xmlns="http://www.w3.org/2000/svg">
<circle cx="32" cy="32" r="30" fill="#E2E5EA"/>
<path d="M31.995 39.6079C30.619 39.6079 29.563 40.6639 29.563 42.0399C29.563 43.4159 30.619 44.4719 31.995 44.4719C33.371 44.4719 34.427 43.4159 34.427 42.0399C34.427 40.6639 33.371 39.6079 31.995 39.6079ZM31.995 19.1279C30.651 19.1279 29.723 19.6719 29.755 21.0799L30.267 35.7039C30.299 37.0159 31.131 37.4639 31.995 37.4639C32.859 37.4639 33.691 37.0159 33.723 35.7039L34.235 21.0799C34.267 19.6719 33.339 19.1279 31.995 19.1279Z" fill="#8C959D"/>
</svg>
