<svg width="44" height="44" viewBox="0 0 44 44" fill="none" xmlns="http://www.w3.org/2000/svg">
<rect x="4.7699" y="9.88623" width="34.4603" height="23.2045" fill="white" stroke="#272B2F" stroke-width="1.375" stroke-linejoin="round"/>
<path d="M33 18.6357C33 20.5687 31.433 22.1357 29.5 22.1357C27.567 22.1357 26 20.5687 26 18.6357C26 16.7027 27.567 15.1357 29.5 15.1357C31.433 15.1357 33 16.7027 33 18.6357Z" fill="#FF8F4C"/>
<path d="M35.0685 27.4129C35.0685 26.7788 34.9262 26.1508 34.6498 25.565C34.3734 24.9791 33.9683 24.4468 33.4576 23.9984C32.9468 23.5499 32.3405 23.1942 31.6732 22.9516C31.0059 22.7089 30.2908 22.584 29.5685 22.584C28.8462 22.584 28.131 22.7089 27.4637 22.9516C26.7964 23.1942 26.1901 23.5499 25.6794 23.9984C25.1687 24.4468 24.7635 24.9791 24.4871 25.565C24.2107 26.1508 24.0685 26.7788 24.0685 27.4129L35.0685 27.4129Z" fill="#FF8F4C"/>
<rect x="8.32898" y="15.3489" width="13.1316" height="1.69095" rx="0.845473" fill="#FF8F4C"/>
<rect x="8.32898" y="20.1096" width="13.1316" height="1.69094" rx="0.845472" fill="#FF8F4C"/>
<rect x="8.32898" y="24.8704" width="8.75439" height="1.69094" rx="0.845472" fill="#FF8F4C"/>
<circle cx="36.4961" cy="32.403" r="6.81638" fill="white" stroke="#272B2F" stroke-width="1.375"/>
<path d="M39.4631 30.2402C39.1633 29.9404 38.6773 29.9404 38.3775 30.2402L35.6281 32.9896L34.0545 31.416C33.7547 31.1162 33.2687 31.1162 32.969 31.416C32.6692 31.7157 32.6692 32.2018 32.969 32.5015L35.0854 34.6179C35.3851 34.9177 35.8711 34.9177 36.1709 34.6179L39.4631 31.3258C39.7628 31.026 39.7628 30.54 39.4631 30.2402Z" fill="#FF8F4C"/>
</svg>
