<svg width="320" height="160" viewBox="0 0 320 160" fill="none" xmlns="http://www.w3.org/2000/svg">
<rect width="320" height="160" fill="white"/>
<mask id="mask0_763_5957" style="mask-type:alpha" maskUnits="userSpaceOnUse" x="84" y="0" width="151" height="160">
<rect x="84.8906" width="150" height="160" fill="#DFEDFB"/>
</mask>
<g mask="url(#mask0_763_5957)">
<mask id="mask1_763_5957" style="mask-type:luminance" maskUnits="userSpaceOnUse" x="87" y="89" width="146" height="90">
<path fill-rule="evenodd" clip-rule="evenodd" d="M89.8582 131.585C91.6241 121.928 99.2878 114.531 108.862 112.362L141.66 104.929C143.55 104.501 144.919 102.861 145.001 100.925L145.505 89.1743L174.705 89.1743L175.209 100.931C175.292 102.864 176.657 104.503 178.543 104.934L210.643 112.269C220.359 114.489 228.075 122.093 229.752 131.917C232.479 147.893 232.777 160.323 230.391 178.791H207.126H112.655H87.8905C86.5575 159.654 87.0178 147.117 89.8582 131.585Z" fill="white"/>
</mask>
<g mask="url(#mask1_763_5957)">
<rect x="79.8286" y="85.3499" width="426.11" height="234.249" fill="#D6DCE4"/>
<path fill-rule="evenodd" clip-rule="evenodd" d="M140.629 91.3215L179.151 91.3215V104.957L172.709 114.081H147.07L140.629 105.49L140.629 91.3215Z" fill="#FFD0C3"/>
<path fill-rule="evenodd" clip-rule="evenodd" d="M144.112 93.2211C144.112 93.2211 150.371 97.5948 158.146 99.5486C165.922 101.502 176.318 101.314 176.318 101.314V86.8936H144.112L144.112 93.2211Z" fill="#FFBBAD"/>
</g>
<path fill-rule="evenodd" clip-rule="evenodd" d="M130.419 51.5468C128.333 35.4742 142.685 22.1243 158.565 25.3667L159.811 25.6211C175.989 22.4506 190.525 36.0495 188.437 52.4026L187.168 62.3386L181.633 81.6227H141.639L139.348 76.0216L135.073 74.2718L131.819 62.3386L130.419 51.5468Z" fill="black"/>
<path fill-rule="evenodd" clip-rule="evenodd" d="M183.7 60.0357C185.806 58.0078 188.923 57.2035 191.626 58.618C194.329 60.0326 195.807 63.2418 194.902 67.1641C193.996 71.0865 192.64 73.0821 190.33 75.4202C188.02 77.7584 185.659 78.6108 183.394 78.0881C181.13 77.5654 178.896 73.7656 178.896 73.7656L175.895 72.0876C175.895 72.0876 181.594 62.0636 183.7 60.0357Z" fill="#FFBBAD"/>
<path fill-rule="evenodd" clip-rule="evenodd" d="M136.168 59.3921C134.062 57.3643 130.946 56.5599 128.242 57.9745C125.539 59.389 124.061 62.5982 124.967 66.5206C125.872 70.4429 127.228 72.4386 129.538 74.7767C131.848 77.1148 134.21 77.9673 136.474 77.4445C138.738 76.9218 140.972 73.1221 140.972 73.1221L143.974 71.444C143.974 71.444 138.274 61.42 136.168 59.3921Z" fill="#FFBBAD"/>
<path fill-rule="evenodd" clip-rule="evenodd" d="M134.04 53.9299C134.04 39.6352 145.628 28.0471 159.923 28.0471C174.218 28.0471 185.806 39.6352 185.806 53.9299V57.02L184.977 71.9202C184.237 85.2143 173.242 95.6153 159.927 95.6153C146.609 95.6153 135.612 85.2095 134.877 71.912L134.04 56.7898L134.04 53.9299Z" fill="#FFD0C3"/>
<path fill-rule="evenodd" clip-rule="evenodd" d="M134.04 53.9299C134.04 39.6352 145.628 28.0471 159.923 28.0471C174.218 28.0471 185.806 39.6352 185.806 53.9299V57.02L184.977 71.9202C184.237 85.2143 173.242 95.6153 159.927 95.6153C146.609 95.6153 135.612 85.2095 134.877 71.912L134.04 56.7898L134.04 53.9299Z" fill="#FFD0C3"/>
<ellipse cx="154.828" cy="67.0351" rx="1.67724" ry="3.34586" fill="black"/>
<ellipse cx="164.893" cy="67.0353" rx="1.67724" ry="3.34586" fill="black"/>
<path d="M153.99 76.2358C153.99 76.2358 156.077 77.9088 159.86 77.9088C163.644 77.9088 165.731 76.2358 165.731 76.2358" stroke="#E89E8F" stroke-width="2.1256" stroke-linecap="round"/>
<path fill-rule="evenodd" clip-rule="evenodd" d="M186.255 58.663L185.347 65.0289L184.2 60.1826C183.789 58.4476 182.177 57.2561 180.399 57.1278C177.64 56.9288 173.522 56.2375 170.126 54.0281C164.452 50.337 162.676 43.6342 162.676 43.6342C162.676 43.6342 162.437 46.1691 162.676 49.1728C162.916 52.1765 164.453 54.9647 164.453 54.9647C164.453 54.9647 159.321 54.1738 156.815 51.3631C154.309 48.5524 153.405 43.6342 153.405 43.6342C153.405 43.6342 151.421 50.7337 147.279 54.0281C144.667 56.1054 140.782 57.2988 138.268 57.8971C136.797 58.247 135.604 59.3907 135.323 60.8762L134.538 65.0289L133.096 58.3937L130.724 44.7918L149.155 27.7374L171.349 27.0835L186.974 43.7502L186.255 58.663Z" fill="black"/>
<path d="M167.295 166.791H152.911L156.024 119.878H164.183L167.295 166.791Z" fill="#5D87C4"/>
<path fill-rule="evenodd" clip-rule="evenodd" d="M154.736 113.865H165.471L165.171 120.013C165.099 121.5 163.872 122.668 162.383 122.668H157.824C156.335 122.668 155.108 121.5 155.036 120.013L154.736 113.865Z" fill="#4F74AA"/>
<path fill-rule="evenodd" clip-rule="evenodd" d="M154.734 112.362H165.47L165.17 118.51C165.097 119.997 163.871 121.165 162.382 121.165H157.822C156.333 121.165 155.107 119.997 155.034 118.51L154.734 112.362Z" fill="#5D87C4"/>
<path fill-rule="evenodd" clip-rule="evenodd" d="M174.999 97.448L161.757 112.27L168.277 120.571C169.104 121.624 170.725 121.537 171.435 120.401L181.16 104.848L174.999 97.448Z" fill="#EFF1F4"/>
<path fill-rule="evenodd" clip-rule="evenodd" d="M145.16 97.448L158.402 112.27L151.882 120.571C151.055 121.624 149.434 121.537 148.724 120.401L138.999 104.848L145.16 97.448Z" fill="#EFF1F4"/>
</g>
<path d="M104 96.3325V115.278C104 116.229 104.771 117 105.722 117H124.667" stroke="#272B2F" stroke-width="2.58344" stroke-linejoin="round"/>
<path d="M216 25.6675V6.72229C216 5.7711 215.229 5 214.277 5H195.332" stroke="#272B2F" stroke-width="2.58344" stroke-linejoin="round"/>
<path d="M216 96.3325V115.278C216 116.229 215.229 117 214.277 117H195.332" stroke="#272B2F" stroke-width="2.58344" stroke-linejoin="round"/>
<path d="M104 25.6675V6.72229C104 5.7711 104.771 5 105.722 5H124.667" stroke="#272B2F" stroke-width="2.58344" stroke-linejoin="round"/>
</svg>
