<svg width="209" height="224" viewBox="0 0 209 224" fill="none" xmlns="http://www.w3.org/2000/svg">
<g clip-path="url(#clip0_76_33742)">
<path d="M31.7133 129.954C19.2999 129.954 9.18195 128.8 8.84766 127.355L10.6974 149.128C10.6974 159.466 20.169 167.899 31.7356 167.899C43.3133 167.899 52.7738 159.443 52.7738 149.128L54.6235 127.322C54.3338 128.8 44.2047 129.954 31.7133 129.954Z" fill="#DEC7B2"/>
<path d="M31.7133 129.954C19.1105 129.954 8.86995 128.778 8.82538 127.299V127.277C8.92567 125.81 19.1327 124.622 31.7133 124.622C44.2939 124.622 54.4787 125.798 54.6012 127.277V127.299C54.5567 128.778 44.3162 129.954 31.7133 129.954Z" fill="#E8D4C1"/>
<path d="M31.7133 129.517C21.0717 129.517 12.4469 128.509 12.4246 127.277V127.254C12.5249 126.022 21.1274 125.014 31.7133 125.014C42.3327 125.014 50.9352 126 51.002 127.254V127.277C50.9798 128.509 42.355 129.517 31.7133 129.517Z" fill="#BA9C7E"/>
<path d="M9.63885 136.696C11.0986 136.741 12.5583 137.301 13.8064 138.522C16.1576 140.806 17.6173 144.323 19.5116 147C20.2359 145.555 20.8488 144.088 21.406 142.565C22.0746 140.762 24.4926 139.07 26.3869 140.538C28.4038 142.106 29.9082 143.886 31.223 146.104C32.3485 148.008 33.2622 150.27 35.034 151.693C36.7389 153.07 38.6555 153.474 39.3464 151.021C39.9704 148.882 39.7587 146.563 40.4272 144.424C41.0067 142.643 41.9093 140.762 43.7367 139.989C45.8985 139.048 47.9823 140.202 49.8989 141.198C51.0466 141.781 52.1721 142.408 53.2752 143.058L52.8964 147.661C50.9352 146.429 48.5394 144.917 46.5225 144.626C45.2522 144.435 45.3525 145.298 45.2522 146.507C45.1853 147.594 45.1853 148.68 45.1296 149.733C45.0071 151.928 44.695 154.112 43.4025 155.926C40.6501 159.824 35.4686 159.634 31.8248 157.158C29.8636 155.837 28.4484 154.101 27.2004 152.096C26.7881 151.446 26.4092 150.774 25.9969 150.091C24.4369 153.731 22.0411 157.002 18.1076 155.635C15.6673 154.773 14.085 152.096 12.6141 150.091C12.1572 149.464 11.3215 147.974 10.4857 146.619L9.63885 136.696Z" fill="#EBDBCD"/>
<path d="M0.646313 55.5408C1.12547 53.6816 3.30951 53.4016 4.60211 54.4768C7.04245 56.5264 8.31277 59.3712 9.66108 62.1824C11.054 65.1504 12.8034 67.8384 14.8092 70.4256C18.9099 75.6784 23.4562 80.5728 26.476 86.5872C32.3039 98.2464 33.6856 112 29.6852 124.477C29.5627 124.858 30.3315 122.886 29.0835 126.358C27.9581 129.494 23.5231 127.803 23.5677 124.163C23.6122 120.602 22.6539 117.275 21.0716 114.094C17.9515 107.811 14.0515 101.954 11.0094 95.592C7.94504 89.208 5.23727 82.6336 3.05322 75.9136C0.936033 69.3728 -1.06972 62.4288 0.646313 55.5408Z" fill="#4C7378"/>
<path d="M29.2172 18.928C30.7773 16.0608 35.4017 18.0096 34.4656 21.1456C31.7802 30.3744 33.6968 40.152 35.3794 49.3808C37.0843 58.8 39.0455 68.1744 40.2155 77.6608C42.277 94.5504 41.6084 113.512 30.9667 127.602C29.819 129.125 27.4232 127.848 28.3592 126.056C29.4178 124.051 26.7546 110.902 25.5734 106.691C24.37 102.357 23.1777 98 22.0968 93.632C19.9908 85.1088 18.2636 76.384 17.7844 67.592C16.8818 50.4784 21.0716 33.9136 29.2172 18.928Z" fill="#57848A"/>
<path d="M34.2762 112.784C35.5242 107.027 34.6105 100.957 35.8362 95.2224C37.0397 89.6112 38.6666 83.9216 41.2741 78.792C43.7478 73.9312 47.5254 70.4592 51.9603 67.4464C56.1278 64.6016 61.0642 61.8128 62.5351 56.6048C63.3931 53.5248 68.6415 53.984 68.3072 57.4C67.6164 64.3664 64.6857 70.504 61.2871 76.5296C57.6656 82.936 54.5009 89.0512 52.7069 96.2304C49.6648 108.539 47.0239 124.51 33.0505 128.296C31.3567 128.722 31.613 125.07 34.2762 112.784Z" fill="#689399"/>
<path d="M182.368 10.0352L181.677 9.38559L188.296 2.22879L193.467 9.43039L192.675 9.99039L188.196 3.75199L182.368 10.0352Z" fill="#E8D4C1"/>
<path d="M158.934 195.238C157.04 195.742 154.978 194.443 154.064 192.158L149.084 179.435C147.98 176.635 149.106 173.578 151.435 172.984L154.521 172.166C156.85 171.539 159.313 173.656 159.747 176.624L161.642 190.165C161.976 192.562 160.828 194.734 158.934 195.238Z" fill="#7A5B3C"/>
<path d="M79.4615 195.238C81.3558 195.742 83.4173 194.443 84.331 192.158L89.312 179.435C90.4151 176.635 89.2897 173.578 86.9608 172.984L83.8741 172.166C81.5452 171.539 79.0826 173.656 78.648 176.624L76.7537 190.165C76.386 192.562 77.5449 194.734 79.4615 195.238Z" fill="#7A5B3C"/>
<path d="M170.768 207.67C168.294 208.32 165.62 206.64 164.461 203.672L157.987 187.141C156.572 183.523 158.009 179.547 161.051 178.752L165.074 177.688C168.094 176.893 171.303 179.614 171.86 183.467L174.3 201.051C174.757 204.221 173.242 207.021 170.768 207.67Z" fill="#A67C52"/>
<path d="M67.594 207.67C70.0678 208.32 72.7422 206.64 73.901 203.672L80.3752 187.141C81.7904 183.523 80.3529 179.547 77.3108 178.752L73.2882 177.688C70.2684 176.893 67.0592 179.614 66.502 183.467L64.0617 201.051C63.6382 204.221 65.1203 207.021 67.594 207.67Z" fill="#A67C52"/>
<path d="M178.613 142.072H61.5767C54.5566 142.072 48.829 136.315 48.829 129.259V80.5728C48.829 73.5168 54.5566 67.76 61.5767 67.76H178.59C185.611 67.76 191.338 73.5168 191.338 80.5728V129.259C191.36 136.315 185.611 142.072 178.613 142.072Z" fill="#676BC4"/>
<path d="M182.97 118.082C180.808 118.104 179.014 119.773 178.824 121.934C178.033 130.222 175.704 149.083 170.623 158.48C167.124 164.931 156.861 165.536 154.131 165.558H85.9802C83.2501 165.514 72.9873 164.931 69.4884 158.48C64.4071 149.083 62.0559 130.245 61.287 121.934C61.0753 119.762 59.2924 118.126 57.1418 118.082L35.4796 117.768C33.0059 117.746 31.0224 119.818 31.1895 122.326C31.9138 132.664 34.733 158.077 45.709 174.429C51.6817 183.288 60.9528 186.032 63.2817 186.592C64.5965 187.029 176.484 186.76 177.387 186.57C180.385 185.73 188.82 182.717 194.403 174.451C205.401 158.122 208.231 132.675 208.922 122.349C209.089 119.862 207.128 117.768 204.632 117.79L182.97 118.082Z" fill="#676BC4"/>
<path d="M85.9467 165.682H154.187C156.917 165.637 167.202 165.054 170.701 158.603C176.094 148.635 178.39 128.005 179.07 120.613C179.214 119.045 178.88 117.51 178.156 116.133L173.654 107.576C173.387 107.094 172.696 107.218 172.595 107.722C171.37 113.837 166.823 135.71 164.428 137.301C161.642 139.16 77.2105 137.547 73.979 137.301C71.2267 137.11 68.3517 114.61 67.5606 107.957C67.4937 107.408 66.7471 107.262 66.4797 107.766L62.1228 116.054C61.3539 117.499 61.0419 119.112 61.1867 120.725C61.833 128.05 64.1397 148.691 69.5329 158.592C72.9427 165.054 83.2166 165.637 85.9467 165.682Z" fill="#4A52BD"/>
<path d="M160.806 165.581H77.5671C77.3219 165.581 77.0879 165.581 76.8762 165.558C68.5078 165.245 63.0922 157.17 66.1677 149.946L69.9564 141.03C70.2906 140.258 71.0372 138.286 71.0372 138.286C74.2687 131.04 79.4057 129.226 86.5707 129.226H151.88C159.045 129.226 165.586 132.933 167.559 138.645C167.559 138.645 168.16 140.258 168.495 141.03L172.283 149.946C175.348 157.17 169.932 165.245 161.575 165.558C161.285 165.581 161.04 165.581 160.806 165.581Z" fill="#2F37A8"/>
<path d="M61.2202 120.658C61.0753 119.045 61.4096 117.41 62.1562 115.987L66.5132 107.722C66.7583 107.262 67.4269 107.363 67.5718 107.845C67.5718 107.845 67.4715 106.322 64.3403 106.109H52.0606C49.9322 106.109 47.8373 106.736 46.0433 107.89L34.7999 115.214C32.4264 116.76 31.0335 119.482 31.1784 122.326C31.0112 119.84 32.9724 117.746 35.4685 117.768L57.1307 118.082C59.1476 118.104 60.8413 119.571 61.2313 121.531L61.2536 121.554C61.2648 121.262 61.2425 120.949 61.2202 120.658Z" fill="#868AE0"/>
<path d="M179.047 120.658C179.192 119.045 178.735 117.432 177.966 115.987L173.609 107.744C173.364 107.285 172.696 107.386 172.551 107.867C172.551 107.867 172.651 106.344 175.782 106.131H188.051C190.179 106.131 192.296 106.758 194.046 107.912L205.312 115.259C207.707 116.827 209.078 119.549 208.933 122.371C209.1 119.885 207.117 117.768 204.643 117.813L182.947 118.126C180.908 118.149 179.326 119.594 178.947 121.576C178.969 121.598 179.014 120.949 179.047 120.658Z" fill="#868AE0"/>
<path d="M175.448 137.234C175.448 137.234 178.969 137.648 181.51 140.269C184.051 142.89 183.215 147.302 181.51 148.68C178.557 151.043 172.885 151.043 168.617 151.043C164.35 151.043 161.497 150.08 161.497 150.08L166.957 136.472C166.957 136.461 170.389 135.856 175.448 137.234Z" fill="#AB534D"/>
<path d="M124.97 178.472C122.864 182.325 120.78 186.155 118.663 190.008C117.248 192.584 119.187 196.078 121.66 197.064C124.636 198.274 127.265 196.627 128.681 194.051C130.787 190.198 132.87 186.368 134.988 182.515C136.403 179.939 134.464 176.445 131.99 175.459C129.026 174.261 126.385 175.896 124.97 178.472Z" fill="#FFCAAA"/>
<path d="M144.649 56.6048C144.649 56.6048 140.002 41.664 138.42 35.3808C136.002 25.648 129.405 19.7904 120.089 19.7904C110.651 19.7904 104.01 25.7376 101.391 35.4256C98.7279 45.3936 95.2289 55.8096 95.2289 55.8096C94.8166 57.1312 95.4741 58.5536 96.7444 59.0576C99.7419 60.2672 106.015 62.384 120.067 62.1936C132.603 62.0256 139.099 60.2448 142.353 59.9088C144.002 59.752 145.083 58.1728 144.649 56.6048Z" fill="#110580"/>
<path d="M125.449 51.9008H114.741V70.5264C114.741 71.9264 115.866 73.0576 117.259 73.0576H122.942C124.335 73.0576 125.46 71.9264 125.46 70.5264V51.9008H125.449Z" fill="#FFCAAA"/>
<path d="M119.933 18.3456C123.626 18.3456 126.619 15.3369 126.619 11.6256C126.619 7.91423 123.626 4.90558 119.933 4.90558C116.241 4.90558 113.247 7.91423 113.247 11.6256C113.247 15.3369 116.241 18.3456 119.933 18.3456Z" fill="#110580"/>
<path d="M208.521 40.7456H164.851C164.584 40.7456 164.372 40.5328 164.372 40.264V9.50879C164.372 9.23999 164.584 9.02719 164.851 9.02719H208.521C208.788 9.02719 209 9.23999 209 9.50879V40.2976C209 40.5328 208.788 40.7456 208.521 40.7456Z" fill="#EBDBCD"/>
<path d="M202.693 36.0976H170.668C170.456 36.0976 170.311 35.9296 170.311 35.7392V14.056C170.311 13.8432 170.478 13.6976 170.668 13.6976H202.693C202.905 13.6976 203.05 13.8656 203.05 14.056V35.7392C203.061 35.9296 202.894 36.0976 202.693 36.0976Z" fill="#FCFAF8"/>
<path d="M63.5157 129.472C63.5157 120.971 71.7616 115.069 80.3863 112.874C97.9813 108.371 128.87 114.251 128.87 114.251L112.545 124.678C112.545 124.678 127.522 128.867 131.266 129.662C135.01 130.458 159.335 136.842 159.736 137.469C160.149 138.074 150.777 150.55 150.777 150.55C150.777 150.55 105.169 151.077 91.1506 149.251C77.1103 147.392 63.5157 143.976 63.5157 129.472Z" fill="#F6A669"/>
<path d="M110.495 124.802C117.905 126.538 128.926 129.741 133.884 131.309C138.966 132.899 140.905 134.445 140.905 134.445C140.905 134.445 131.678 142.587 127.6 158.704C125.304 167.765 120.914 179.883 120.145 182.549C120.022 182.963 120.123 183.389 120.412 183.702C121.304 184.666 123.365 186.76 125.56 187.97C128.246 189.459 133.16 191.106 133.662 190.378C133.662 190.378 155.112 169.277 163.48 157.158C171.849 145.04 179.56 135.218 176.25 126.784C173.543 119.874 167.548 115.797 157.575 113.68C142.331 110.477 124.591 111.731 124.591 111.731C124.591 111.731 123.566 114.386 119.532 119.056C116.2 122.965 110.328 124.779 110.495 124.802Z" fill="#FFDBC5"/>
<path d="M104.166 52.2144C102.439 52.2144 102.394 47.1744 102.394 46.6032C102.394 46.032 102.439 40.992 104.166 40.992C105.893 40.992 105.937 46.032 105.937 46.6032C105.937 47.1744 105.893 52.2144 104.166 52.2144ZM104.166 41.9552C103.854 42.2688 103.33 43.9264 103.33 46.6032C103.33 49.2576 103.831 50.9376 104.166 51.2512C104.478 50.9376 105.001 49.28 105.001 46.6032C104.979 43.9264 104.478 42.2464 104.166 41.9552Z" fill="white"/>
<path d="M135.69 52.2144C133.962 52.2144 133.918 47.1744 133.918 46.6032C133.918 46.032 133.962 40.992 135.69 40.992C137.417 40.992 137.461 46.032 137.461 46.6032C137.461 47.1744 137.406 52.2144 135.69 52.2144ZM135.69 41.9552C135.378 42.2688 134.854 43.9264 134.854 46.6032C134.854 49.2576 135.355 50.9376 135.69 51.2512C136.002 50.9376 136.525 49.28 136.525 46.6032C136.503 43.9264 136.002 42.2464 135.69 41.9552Z" fill="white"/>
<path d="M120.1 55.9104C129.91 55.9104 137.862 47.9174 137.862 38.0576C137.862 28.1977 129.91 20.2048 120.1 20.2048C110.291 20.2048 102.338 28.1977 102.338 38.0576C102.338 47.9174 110.291 55.9104 120.1 55.9104Z" fill="#FFCAAA"/>
<path d="M101.982 39.3792C102.004 39.6704 102.026 39.9616 102.049 40.2192C102.049 40.2416 102.049 40.2864 102.071 40.32C102.115 40.6336 102.138 40.9472 102.193 41.2384V41.2608C102.238 41.5968 102.316 41.9104 102.383 42.224C103.586 37.3072 107.988 33.6448 113.236 33.6448C113.882 33.6448 114.529 33.6896 115.153 33.8128C115.61 33.9136 116.111 33.9808 116.59 33.9808C119.9 33.9808 122.63 31.472 122.986 28.2464C122.986 28.2464 123.009 28.2464 123.009 28.224C122.964 28.56 122.908 28.896 122.908 29.2544C122.908 33.0624 125.973 36.12 129.739 36.12H129.761C133.45 36.8704 136.403 39.6144 137.484 43.1984C137.695 42.4032 137.896 41.5856 138.007 40.768C138.007 40.7456 138.007 40.7008 138.007 40.6672C138.052 40.3312 138.108 39.9728 138.13 39.6032C138.13 39.5024 138.152 39.4352 138.152 39.3344C138.174 38.9536 138.197 38.5392 138.197 38.1584C138.197 37.8224 138.197 37.4864 138.174 37.1728C138.174 37.072 138.152 36.9824 138.152 36.8816C138.13 36.6352 138.13 36.4224 138.108 36.1872C138.108 36.0864 138.085 35.9744 138.063 35.8736C138.041 35.6608 138.018 35.4368 137.963 35.224C137.94 35.1232 137.918 35.0112 137.918 34.9104C137.874 34.6976 137.851 34.4736 137.796 34.2608C137.773 34.16 137.751 34.0704 137.729 33.9696C137.684 33.7568 137.606 33.5104 137.562 33.2976C137.539 33.2304 137.517 33.1296 137.495 33.0512C137.428 32.8048 137.35 32.5696 137.283 32.3232C137.261 32.256 137.238 32.2 137.216 32.1328C137.116 31.864 137.027 31.6064 136.926 31.36C136.904 31.3376 136.904 31.2928 136.882 31.2592C136.759 30.968 136.637 30.6768 136.503 30.3968C134.943 27.048 132.38 24.2592 129.215 22.4C128.213 21.8176 127.154 21.3136 126.051 20.9328C126.006 20.9104 125.984 20.9104 125.928 20.888C125.616 20.7648 125.282 20.6752 124.97 20.5744C124.925 20.552 124.87 20.552 124.803 20.5296C124.078 20.3392 123.365 20.1936 122.619 20.0704C122.518 20.048 122.429 20.048 122.329 20.048C122.039 20.0256 121.783 19.9808 121.493 19.9472C121.393 19.9472 121.282 19.9248 121.181 19.9248C120.825 19.9024 120.435 19.88 120.056 19.88C110.038 19.88 101.915 28.0448 101.915 38.1136C101.915 38.4496 101.915 38.7856 101.937 39.1216C101.982 39.256 101.982 39.3008 101.982 39.3792Z" fill="#110580"/>
<path d="M116.1 192.371C115.721 192.853 112.456 197.355 112.166 199.741C111.955 201.398 110.963 204.434 110.294 208.488C109.626 212.531 107.509 221.11 113.771 223.395C119.042 225.344 120.312 222.051 121.438 220.506C122.563 218.96 125.683 206.774 125.917 205.475C126.374 202.821 129.293 194.421 129.293 194.421C129.628 193.726 129.795 193.458 129.048 193.245C127.655 192.83 125.527 192.091 123.967 191.363C122.284 190.568 120.591 189 119.632 188.227C119.298 187.936 119.109 187.746 118.863 188.126C118.886 188.138 116.122 192.349 116.1 192.371Z" fill="#C7645D"/>
<path d="M91.5628 80.64C86.047 85.5792 81.6678 91.7504 81.2332 99.3776C80.7986 107.251 85.5233 113.277 92.3763 116.458C94.4155 117.421 96.8781 117.04 98.1038 114.934C99.1624 113.131 98.6499 110.141 96.5884 109.178C92.042 107.072 88.9219 103.981 89.6462 98.616C90.3148 93.632 93.8918 89.7792 97.4575 86.576C101.502 83.0032 95.5632 77.056 91.5628 80.64Z" fill="#FFCAAA"/>
<path d="M140.503 86.5648C142.353 88.9728 143.902 91.5488 145.25 94.2704C146.376 96.5776 147.858 99.3104 147.579 101.976C146.978 107.498 140.916 110.499 136.626 112.84C131.901 115.416 136.102 122.696 140.849 120.086C147.39 116.525 154.388 111.843 155.714 103.846C156.382 99.7248 155.212 96.0176 153.53 92.288C151.947 88.7488 150.098 85.3776 147.724 82.2864C146.331 80.5056 144.125 79.52 141.997 80.7632C140.236 81.8496 139.11 84.7616 140.503 86.5648Z" fill="#F0B796"/>
<path d="M137.383 67.704C132.826 65.296 127.7 64.0864 125.449 63.728C124.758 66.696 123.22 68.3312 119.911 68.3312C116.535 68.3312 115.376 66.6176 114.729 63.5824C114.039 63.6048 111.944 64.0864 111.464 64.1312C105.525 64.6576 101.425 67.0992 98.3825 69.2384C94.1592 72.1728 89.6574 77.9296 87.8077 80.3936C87.2839 81.088 87.3062 82.0512 87.8522 82.7344C88.8551 83.944 90.56 85.8144 92.2872 86.9792C95.3515 89.0288 100.455 89.0288 100.455 89.0288L101.224 81.9504C101.224 81.9504 99.9314 89.656 99.6639 94.7632C99.3519 100.33 99.6639 105.314 99.6639 105.314L138.42 106.109C138.42 106.109 139.835 100.587 138.999 92.96C138.787 90.9888 136.648 82.5328 136.648 82.5328L138.442 88.144C138.442 88.144 141.15 88.2448 145.774 86.1952C147.189 85.568 149.15 84.056 150.309 83.1376C150.833 82.7232 150.933 81.9616 150.521 81.424C148.482 78.5456 142.008 70.1344 137.383 67.704Z" fill="white"/>
<path d="M120.1 55.8768C118.228 55.8768 116.434 55.5856 114.729 55.0368V58.3632C116.434 58.8896 118.273 58.912 120.167 58.744C122.686 58.4976 123.766 58.016 125.46 57.2992V55.0368C123.778 55.5856 121.972 55.8768 120.1 55.8768Z" fill="#E3996D"/>
<path d="M188.006 5.0512C187.884 5.0512 187.739 5.0064 187.65 4.8832C187.483 4.6928 187.527 4.4016 187.717 4.256L191.238 1.4112C191.427 1.2656 191.717 1.288 191.862 1.4784C192.029 1.6688 191.984 1.96 191.795 2.1056L188.274 4.9504C188.196 4.9952 188.107 5.0512 188.006 5.0512Z" fill="#D4BFA9"/>
<path d="M192.82 2.92463C193.34 2.56046 193.331 1.64398 192.8 0.877612C192.269 0.111246 191.416 -0.214799 190.896 0.149376C190.376 0.513551 190.385 1.43004 190.916 2.19641C191.447 2.96277 192.3 3.28881 192.82 2.92463Z" fill="#D4BFA9"/>
<path d="M119.866 122.651C126.051 124.096 132.302 125.227 138.464 126.773C141.529 127.546 144.571 128.408 147.546 129.472C148.237 129.718 148.939 129.976 149.607 130.245C149.942 130.39 150.298 130.514 150.632 130.659C150.878 130.76 151.49 130.906 151.691 131.118C151.981 131.499 151.112 132.328 150.9 132.586C150.376 133.213 149.875 133.818 149.362 134.445C141.74 143.696 134.765 153.496 129.059 164.08C125.895 169.96 123.165 176.053 120.936 182.336C120.624 183.198 122.017 183.59 122.329 182.717C126.407 171.102 132.347 160.238 139.278 150.147C142.777 145.062 146.521 140.146 150.443 135.386C150.922 134.781 151.424 134.21 151.903 133.627C152.36 133.101 152.861 132.563 153.073 131.891C153.262 131.264 153.195 130.592 152.716 130.133C152.237 129.651 151.446 129.461 150.844 129.214C147.847 127.982 144.76 126.997 141.64 126.134C134.598 124.186 127.377 122.931 120.256 121.274C119.343 121.061 118.953 122.438 119.866 122.651Z" fill="white"/>
<path d="M97.413 88.8384C97.413 88.8384 99.7419 86.352 100.578 84.6496C101.413 82.9136 102.394 79.688 102.394 79.688C102.394 79.688 101.67 84.4368 101.246 86.4864C100.645 89.3536 99.9537 90.7312 99.9537 90.7312L97.725 90.608C97.725 90.608 97.6247 90.1936 97.5802 89.768C97.5022 89.32 97.413 88.8384 97.413 88.8384Z" fill="#E0E0E0"/>
<path d="M140.503 89.7008C140.503 89.7008 138.486 86.9792 137.84 85.176C137.194 83.3728 136.592 80.0464 136.592 80.0464C136.592 80.0464 136.759 84.84 136.949 86.912C137.238 89.824 137.762 91.2688 137.762 91.2688L139.991 91.392C139.991 91.392 140.136 90.9776 140.236 90.5744C140.359 90.1824 140.503 89.7008 140.503 89.7008Z" fill="#E0E0E0"/>
<path d="M142.543 121.374H95.7973C94.2372 121.374 92.8778 120.266 92.5658 118.698L87.0499 90.6864C86.6376 88.6368 88.1977 86.7328 90.2814 86.7328H149.886C152.048 86.7328 153.63 88.7824 153.073 90.8768L145.718 118.922C145.339 120.366 144.025 121.374 142.543 121.374Z" fill="#C5C6E3"/>
<path d="M124.881 105.045C124.691 107.554 122.552 109.603 120.111 109.603C117.671 109.603 115.532 107.576 115.32 105.078C115.108 102.581 117.259 100.52 120.089 100.52C122.931 100.498 125.07 102.536 124.881 105.045Z" fill="#E8E9FF"/>
<path d="M179.905 22.008C181.387 20.608 184.195 19.9808 185.845 20.776C187.494 21.5712 186.926 21.4032 187.494 21.5712C188.073 21.7392 189.121 21.504 190.101 22.2656C191.227 23.1616 193.333 25.592 192.185 28.7728C191.204 31.472 188.062 33.7792 184.273 33.1296C180.485 32.48 178.613 30.2176 178.134 28.2912C177.576 26.0288 178.468 23.352 179.905 22.008Z" fill="#F06C34"/>
<path d="M187.839 22.4672C187.839 22.4672 187.717 18.6816 190.09 17.8192C192.464 16.9568 196.297 15.7696 196.13 16.016C195.963 16.2288 195.027 20.3504 193.422 21.4368C191.004 23.0944 187.839 22.4672 187.839 22.4672Z" fill="#1F6771"/>
<path d="M185.343 22.9712C185.343 22.9712 185.7 21.1456 185.778 20.0368C185.923 17.7968 185.878 16.688 185.878 16.688L187.772 17.0016C187.772 17.0016 187.505 19.6224 187.293 20.5856C186.914 22.2992 186.335 23.3072 186.335 23.3072C186.335 23.3072 185.978 23.5984 185.666 23.4304C185.321 23.24 185.343 22.9712 185.343 22.9712Z" fill="#6B4D3A"/>
<path d="M187.745 16.9884C187.797 16.7275 187.418 16.4315 186.899 16.3271C186.38 16.2228 185.917 16.3496 185.865 16.6104C185.813 16.8712 186.192 17.1673 186.711 17.2717C187.23 17.376 187.693 17.2492 187.745 16.9884Z" fill="#8A634B"/>
</g>
<defs>
<clipPath id="clip0_76_33742">
<rect width="209" height="224" fill="white"/>
</clipPath>
</defs>
</svg>
