<svg width="244" height="150" viewBox="0 0 244 150" fill="none" xmlns="http://www.w3.org/2000/svg">
<g clip-path="url(#clip0_76_33807)">
<path d="M232 0H12C5.37258 0 0 5.37258 0 12V138C0 144.627 5.37258 150 12 150H232C238.627 150 244 144.627 244 138V12C244 5.37258 238.627 0 232 0Z" fill="#F4F6F8"/>
<mask id="mask0_76_33807" style="mask-type:alpha" maskUnits="userSpaceOnUse" x="152" y="20" width="72" height="86">
<path d="M218 20H158C154.686 20 152 22.6863 152 26V100C152 103.314 154.686 106 158 106H218C221.314 106 224 103.314 224 100V26C224 22.6863 221.314 20 218 20Z" fill="#E2E5E9"/>
</mask>
<g mask="url(#mask0_76_33807)">
<path d="M152 26C152 22.6863 154.686 20 158 20H218C221.314 20 224 22.6863 224 26V100C224 103.314 221.314 106 218 106H158C154.686 106 152 103.314 152 100V26Z" fill="#D3D8DE"/>
<path fill-rule="evenodd" clip-rule="evenodd" d="M207.067 76.4309C207.562 76.4309 207.929 75.9483 207.826 75.4644C207.448 73.6847 206.841 69.535 207.709 63.7478C208.886 55.9011 208.313 51.0825 205.466 44.2084C201.107 33.6846 195.251 29.4271 188.554 31.6641C179.517 28.6349 172.711 34.2098 168.136 48.3888C165.816 55.5799 166.807 61.8129 167.34 67.4678C167.711 71.3977 167.473 74.1943 167.293 75.5347C167.231 75.9979 167.589 76.4309 168.056 76.4309H207.067Z" fill="black"/>
<path fill-rule="evenodd" clip-rule="evenodd" d="M194.29 66.1768V74.7861C194.29 77.581 195.935 80.1127 198.51 81.1988C201.174 82.3222 204.841 83.8296 208.743 85.3158C216.423 88.2415 221.371 90.0781 219.592 107.381C218.763 115.448 218.124 124.341 217.678 131.535C217.168 139.77 216.755 142.89 217.161 146.681C217.568 150.472 218.563 157.483 218.563 157.483L206.305 146.193L205.695 120.059L201.153 135.113C200.08 138.822 199.943 139.591 202.737 146.193C205.532 152.795 207.696 157.483 207.696 157.483H161.701L168.48 138.71L166.855 129.846L158.639 129.674C158.639 129.674 158.285 121.003 157.595 109.726C157.204 103.335 156.021 96.0934 158.393 90.7257C159.973 86.8736 163.518 85.3158 168.001 83.7953C170.257 83.03 173.319 81.9173 175.805 81.0007C178.423 80.0354 180.149 77.5361 180.149 74.7461V66.1768H194.29Z" fill="#FFD0C3"/>
<mask id="mask1_76_33807" style="mask-type:luminance" maskUnits="userSpaceOnUse" x="156" y="66" width="64" height="92">
<path fill-rule="evenodd" clip-rule="evenodd" d="M194.29 66.1768V74.7861C194.29 77.581 195.935 80.1127 198.51 81.1988C201.174 82.3222 204.841 83.8296 208.743 85.3158C216.423 88.2415 221.371 90.0781 219.592 107.381C218.763 115.448 218.124 124.341 217.678 131.535C217.168 139.77 216.755 142.89 217.161 146.681C217.568 150.472 218.563 157.483 218.563 157.483L206.305 146.193L205.695 120.059L201.153 135.113C200.08 138.822 199.943 139.591 202.737 146.193C205.532 152.795 207.696 157.483 207.696 157.483H161.701L168.48 138.71L166.855 129.846L158.639 129.674C158.639 129.674 158.285 121.003 157.595 109.726C157.204 103.335 156.021 96.0934 158.393 90.7257C159.973 86.8736 163.518 85.3158 168.001 83.7953C170.257 83.03 173.319 81.9173 175.805 81.0007C178.423 80.0354 180.149 77.5361 180.149 74.7461V66.1768H194.29Z" fill="white"/>
</mask>
<g mask="url(#mask1_76_33807)">
<path fill-rule="evenodd" clip-rule="evenodd" d="M201.384 138.784H168.363L152.938 128.319V88.6464L175.76 74.3438H208.067L228.459 99.018L226.373 129.618H204.41L201.384 138.784Z" fill="#A6C4EC"/>
</g>
<path fill-rule="evenodd" clip-rule="evenodd" d="M180.149 73.485H194.29V66.0488H180.149V73.485Z" fill="#FFD0C3"/>
<path fill-rule="evenodd" clip-rule="evenodd" d="M180.149 69.8046C180.149 69.8046 182.898 71.725 186.312 72.5829C189.726 73.4408 194.29 73.3582 194.29 73.3582V67.0264H180.149V69.8046Z" fill="#FFBBAD"/>
<path fill-rule="evenodd" clip-rule="evenodd" d="M199.074 52.1811C200.187 50.9491 201.92 50.3701 203.507 51.0643C205.094 51.7584 206.059 53.5175 205.701 55.7749C205.344 58.0323 204.655 59.2164 203.439 60.6321C202.223 62.0479 200.919 62.6243 199.616 62.4179C198.313 62.2115 196.897 60.1478 196.897 60.1478L195.131 59.3163C195.131 59.3163 197.962 53.4131 199.074 52.1811Z" fill="#FFBBAD"/>
<path fill-rule="evenodd" clip-rule="evenodd" d="M174.894 52.1811C173.782 50.9491 172.048 50.3701 170.461 51.0643C168.874 51.7584 167.91 53.5175 168.267 55.7749C168.625 58.0323 169.314 59.2164 170.53 60.6321C171.745 62.0479 173.049 62.6243 174.352 62.4179C175.655 62.2115 177.071 60.1478 177.071 60.1478L178.838 59.3163C178.838 59.3163 176.007 53.4131 174.894 52.1811Z" fill="#FFBBAD"/>
<path fill-rule="evenodd" clip-rule="evenodd" d="M185.241 39.8799H190.839L200.312 47.709V57.617C200.312 64.9892 194.336 70.9656 186.964 70.9656C179.592 70.9656 173.615 64.9892 173.615 57.617V47.5899L185.241 39.8799Z" fill="#FFD0C3"/>
<path d="M184.093 57.4693C184.619 57.4693 185.045 56.6188 185.045 55.5696C185.045 54.5204 184.619 53.6699 184.093 53.6699C183.567 53.6699 183.141 54.5204 183.141 55.5696C183.141 56.6188 183.567 57.4693 184.093 57.4693Z" fill="black"/>
<path d="M189.806 57.4693C190.332 57.4693 190.758 56.6188 190.758 55.5696C190.758 54.5204 190.332 53.6699 189.806 53.6699C189.28 53.6699 188.854 54.5204 188.854 55.5696C188.854 56.6188 189.28 57.4693 189.806 57.4693Z" fill="black"/>
<path d="M183.617 60.7812C183.617 60.7812 184.802 61.7311 186.95 61.7311C189.099 61.7311 190.283 60.7812 190.283 60.7812" stroke="#E89E8F" stroke-width="1.29185" stroke-linecap="round"/>
<path fill-rule="evenodd" clip-rule="evenodd" d="M200.313 51.2169L188.497 49.7712C188.497 49.7712 189.138 47.7941 189.138 45.514C189.138 43.2339 188.497 41.2308 188.497 41.2308C188.497 41.2308 188.008 44.472 187.526 46.3755C187.044 48.2791 186.167 49.8289 186.167 49.8289L182.015 49.6472C182.015 49.6472 182.682 48.3379 183.062 46.8458C183.443 45.3537 183.497 43.8389 183.497 43.8389C183.497 43.8389 182.402 46.5612 181.656 47.8091C180.909 49.0569 179.679 50.2222 179.679 50.2222L173.615 51.196L172.784 43.8389C172.784 43.8389 182.418 36.6719 182.958 36.6719C183.497 36.6719 198.472 38.6591 198.472 38.6591L200.877 44.472L200.313 51.2169Z" fill="black"/>
</g>
<path d="M88.3003 129.548H87.3643V132.221H85.6273V132.977H87.3643V137.702H88.3003V129.548ZM84.4933 131.564V130.223H83.5573V131.564C83.5573 133.085 82.7653 134.651 81.4963 135.272L82.0813 136.01C83.0173 135.533 83.6743 134.597 84.0343 133.436C84.3853 134.525 85.0243 135.416 85.9603 135.875L86.5093 135.128C85.2583 134.552 84.4933 133.067 84.4933 131.564Z" fill="#485059"/>
<path d="M93.5016 132.455C95.3646 132.455 96.3996 131.96 96.3996 131.051C96.3996 130.142 95.3646 129.647 93.5016 129.647C91.6296 129.647 90.6036 130.142 90.6036 131.051C90.6036 131.96 91.6296 132.455 93.5016 132.455ZM93.5016 130.34C94.7706 130.34 95.4366 130.583 95.4366 131.051C95.4366 131.519 94.7706 131.762 93.5016 131.762C92.2326 131.762 91.5666 131.519 91.5666 131.051C91.5666 130.583 92.2326 130.34 93.5016 130.34ZM93.9606 133.634H97.1736V132.896H89.8206V133.634H93.0246V134.291H90.6936V134.993H95.3466V135.578H90.7116V137.621H96.4896V136.91H91.6296V136.235H96.2556V134.291H93.9606V133.634Z" fill="#485059"/>
<path d="M104.634 133.175V132.464H99.9629V131.807H104.382V131.114H99.9629V130.484H104.58V129.773H99.0359V133.175H104.634ZM105.453 133.823H98.0909V134.57H105.453V133.823ZM98.9189 135.236V135.983H103.599V137.702H104.526V135.236H98.9189Z" fill="#485059"/>
<path d="M110.501 133.499V132.86H112.184V133.778H113.12V129.566H112.184V130.664H110.501V129.926H109.592V130.988H107.675V129.926H106.757V133.499H110.501ZM110.501 131.375H112.184V132.14H110.501V131.375ZM109.592 131.699V132.761H107.675V131.699H109.592ZM113.39 136.865H108.755V136.172H113.12V134.138H107.828V134.867H112.202V135.488H107.837V137.594H113.39V136.865Z" fill="#485059"/>
<path d="M121.355 129.557H120.419V137.711H121.355V129.557ZM117.665 131.573V130.241H116.738V131.573C116.738 133.13 115.892 134.705 114.596 135.281L115.145 136.055C116.126 135.578 116.846 134.633 117.215 133.436C117.584 134.561 118.295 135.434 119.231 135.875L119.771 135.137C118.493 134.561 117.665 133.076 117.665 131.573Z" fill="#485059"/>
<path d="M127.894 137.117C129.595 137.117 130.783 135.794 130.783 133.661C130.783 131.528 129.595 130.25 127.894 130.25C126.193 130.25 125.014 131.528 125.014 133.661C125.014 135.794 126.193 137.117 127.894 137.117ZM127.894 136.208C126.796 136.208 126.085 135.218 126.085 133.661C126.085 132.104 126.796 131.159 127.894 131.159C128.992 131.159 129.712 132.104 129.712 133.661C129.712 135.218 128.992 136.208 127.894 136.208Z" fill="#485059"/>
<path d="M134.679 137.117C136.38 137.117 137.568 135.794 137.568 133.661C137.568 131.528 136.38 130.25 134.679 130.25C132.978 130.25 131.799 131.528 131.799 133.661C131.799 135.794 132.978 137.117 134.679 137.117ZM134.679 136.208C133.581 136.208 132.87 135.218 132.87 133.661C132.87 132.104 133.581 131.159 134.679 131.159C135.777 131.159 136.497 132.104 136.497 133.661C136.497 135.218 135.777 136.208 134.679 136.208Z" fill="#485059"/>
<path d="M145.883 134.3V133.535H144.749C144.956 132.383 144.956 131.537 144.956 130.772V130.061H139.412V130.808H144.047C144.047 131.555 144.056 132.41 143.813 133.535H138.53V134.3H141.707V137.693H142.643V134.3H145.883Z" fill="#485059"/>
<path d="M151.219 134.174L151.651 133.463C150.409 133.103 149.671 132.221 149.671 131.294V131.222H151.381V130.484H149.68V129.521H148.744V130.484H147.034V131.222H148.744V131.294C148.744 132.302 148.042 133.274 146.791 133.661L147.241 134.381C148.213 134.084 148.879 133.463 149.239 132.635C149.608 133.355 150.283 133.913 151.219 134.174ZM152.614 131.807H151.147V132.572H152.614V134.48H153.541V129.557H152.614V131.807ZM150.832 134.66C149.131 134.66 148.096 135.2 148.096 136.172C148.096 137.135 149.131 137.693 150.832 137.693C152.533 137.693 153.577 137.135 153.577 136.172C153.577 135.218 152.533 134.66 150.832 134.66ZM150.832 136.973C149.671 136.973 149.023 136.685 149.023 136.172C149.023 135.659 149.671 135.38 150.832 135.38C151.993 135.38 152.65 135.659 152.65 136.172C152.65 136.685 151.993 136.973 150.832 136.973Z" fill="#485059"/>
<path d="M162.585 131.546H161.433V129.566H160.506V134.426H161.433V132.311H162.585V131.546ZM159.408 134.111L159.858 133.391C158.616 132.986 157.941 132.059 157.941 131.042V130.889H159.642V130.142H155.277V130.889H157.005V131.051C157.005 132.158 156.294 133.211 155.016 133.643L155.484 134.372C156.456 134.039 157.14 133.346 157.5 132.482C157.851 133.238 158.499 133.823 159.408 134.111ZM158.814 134.615C157.14 134.615 156.105 135.182 156.105 136.154C156.105 137.126 157.14 137.693 158.814 137.693C160.488 137.693 161.523 137.126 161.523 136.154C161.523 135.182 160.488 134.615 158.814 134.615ZM158.814 136.964C157.653 136.964 157.023 136.694 157.023 136.154C157.023 135.614 157.653 135.344 158.814 135.344C159.975 135.344 160.605 135.614 160.605 136.154C160.605 136.694 159.975 136.964 158.814 136.964Z" fill="#485059"/>
<path d="M99.5949 119.536L100.675 118.627C100.666 118.78 100.666 118.933 100.666 119.077V123.136H99.2799V124H102.907V123.136H101.656V117.331H100.846L99.0459 118.87L99.5949 119.536Z" fill="#485059"/>
<path d="M104.668 124H105.928L107.656 121.525C108.106 120.868 108.421 120.265 108.421 119.446C108.421 118.114 107.53 117.277 106.252 117.277C105.001 117.277 104.011 118.15 104.011 119.401C104.011 120.517 104.767 121.309 105.865 121.309C106.288 121.309 106.684 121.201 107.026 120.958L106.711 121.39L104.668 124ZM105.001 119.329C105.001 118.591 105.523 118.096 106.234 118.096C106.999 118.096 107.467 118.609 107.467 119.338C107.467 120.058 106.945 120.553 106.207 120.553C105.442 120.553 105.001 120.085 105.001 119.329Z" fill="#485059"/>
<path d="M110.03 124H111.29L113.018 121.525C113.468 120.868 113.783 120.265 113.783 119.446C113.783 118.114 112.892 117.277 111.614 117.277C110.363 117.277 109.373 118.15 109.373 119.401C109.373 120.517 110.129 121.309 111.227 121.309C111.65 121.309 112.046 121.201 112.388 120.958L112.073 121.39L110.03 124ZM110.363 119.329C110.363 118.591 110.885 118.096 111.596 118.096C112.361 118.096 112.829 118.609 112.829 119.338C112.829 120.058 112.307 120.553 111.569 120.553C110.804 120.553 110.363 120.085 110.363 119.329Z" fill="#485059"/>
<path d="M119.36 120.679C119.36 119.149 118.811 117.277 116.93 117.277C115.076 117.277 114.509 119.095 114.509 120.679C114.509 122.263 115.076 124.072 116.93 124.072C118.784 124.072 119.36 122.263 119.36 120.679ZM118.334 120.679C118.334 121.606 118.172 123.244 116.93 123.244C115.697 123.244 115.526 121.606 115.526 120.679C115.526 119.752 115.688 118.114 116.93 118.114C118.172 118.114 118.334 119.752 118.334 120.679Z" fill="#485059"/>
<path d="M121.076 124.117V123.001H120.014V124.117H121.076Z" fill="#485059"/>
<path d="M127.103 120.679C127.103 119.149 126.554 117.277 124.673 117.277C122.819 117.277 122.252 119.095 122.252 120.679C122.252 122.263 122.819 124.072 124.673 124.072C126.527 124.072 127.103 122.263 127.103 120.679ZM126.077 120.679C126.077 121.606 125.915 123.244 124.673 123.244C123.44 123.244 123.269 121.606 123.269 120.679C123.269 119.752 123.431 118.114 124.673 118.114C125.915 118.114 126.077 119.752 126.077 120.679Z" fill="#485059"/>
<path d="M132.464 120.679C132.464 119.149 131.915 117.277 130.034 117.277C128.18 117.277 127.613 119.095 127.613 120.679C127.613 122.263 128.18 124.072 130.034 124.072C131.888 124.072 132.464 122.263 132.464 120.679ZM131.438 120.679C131.438 121.606 131.276 123.244 130.034 123.244C128.801 123.244 128.63 121.606 128.63 120.679C128.63 119.752 128.792 118.114 130.034 118.114C131.276 118.114 131.438 119.752 131.438 120.679Z" fill="#485059"/>
<path d="M134.181 124.117V123.001H133.119V124.117H134.181Z" fill="#485059"/>
<path d="M140.208 120.679C140.208 119.149 139.659 117.277 137.778 117.277C135.924 117.277 135.357 119.095 135.357 120.679C135.357 122.263 135.924 124.072 137.778 124.072C139.632 124.072 140.208 122.263 140.208 120.679ZM139.182 120.679C139.182 121.606 139.02 123.244 137.778 123.244C136.545 123.244 136.374 121.606 136.374 120.679C136.374 119.752 136.536 118.114 137.778 118.114C139.02 118.114 139.182 119.752 139.182 120.679Z" fill="#485059"/>
<path d="M145.569 120.679C145.569 119.149 145.02 117.277 143.139 117.277C141.285 117.277 140.718 119.095 140.718 120.679C140.718 122.263 141.285 124.072 143.139 124.072C144.993 124.072 145.569 122.263 145.569 120.679ZM144.543 120.679C144.543 121.606 144.381 123.244 143.139 123.244C141.906 123.244 141.735 121.606 141.735 120.679C141.735 119.752 141.897 118.114 143.139 118.114C144.381 118.114 144.543 119.752 144.543 120.679Z" fill="#485059"/>
<path d="M27.8039 84.5721C27.8039 82.5321 27.0719 80.0361 24.5639 80.0361C22.0919 80.0361 21.3359 82.4601 21.3359 84.5721C21.3359 86.6841 22.0919 89.0961 24.5639 89.0961C27.0359 89.0961 27.8039 86.6841 27.8039 84.5721ZM26.4359 84.5721C26.4359 85.8081 26.2199 87.9921 24.5639 87.9921C22.9199 87.9921 22.6919 85.8081 22.6919 84.5721C22.6919 83.3361 22.9079 81.1521 24.5639 81.1521C26.2199 81.1521 26.4359 83.3361 26.4359 84.5721Z" fill="#8C959D"/>
<path d="M34.9524 84.5721C34.9524 82.5321 34.2204 80.0361 31.7124 80.0361C29.2404 80.0361 28.4844 82.4601 28.4844 84.5721C28.4844 86.6841 29.2404 89.0961 31.7124 89.0961C34.1844 89.0961 34.9524 86.6841 34.9524 84.5721ZM33.5844 84.5721C33.5844 85.8081 33.3684 87.9921 31.7124 87.9921C30.0684 87.9921 29.8404 85.8081 29.8404 84.5721C29.8404 83.3361 30.0564 81.1521 31.7124 81.1521C33.3684 81.1521 33.5844 83.3361 33.5844 84.5721Z" fill="#8C959D"/>
<path d="M42.1008 84.5721C42.1008 82.5321 41.3688 80.0361 38.8608 80.0361C36.3888 80.0361 35.6328 82.4601 35.6328 84.5721C35.6328 86.6841 36.3888 89.0961 38.8608 89.0961C41.3328 89.0961 42.1008 86.6841 42.1008 84.5721ZM40.7328 84.5721C40.7328 85.8081 40.5168 87.9921 38.8608 87.9921C37.2168 87.9921 36.9888 85.8081 36.9888 84.5721C36.9888 83.3361 37.2048 81.1521 38.8608 81.1521C40.5168 81.1521 40.7328 83.3361 40.7328 84.5721Z" fill="#8C959D"/>
<path d="M49.2493 84.5721C49.2493 82.5321 48.5173 80.0361 46.0093 80.0361C43.5373 80.0361 42.7812 82.4601 42.7812 84.5721C42.7812 86.6841 43.5373 89.0961 46.0093 89.0961C48.4813 89.0961 49.2493 86.6841 49.2493 84.5721ZM47.8814 84.5721C47.8814 85.8081 47.6653 87.9921 46.0093 87.9921C44.3652 87.9921 44.1372 85.8081 44.1372 84.5721C44.1372 83.3361 44.3533 81.1521 46.0093 81.1521C47.6653 81.1521 47.8814 83.3361 47.8814 84.5721Z" fill="#8C959D"/>
<path d="M56.3977 84.5721C56.3977 82.5321 55.6657 80.0361 53.1577 80.0361C50.6857 80.0361 49.9297 82.4601 49.9297 84.5721C49.9297 86.6841 50.6857 89.0961 53.1577 89.0961C55.6297 89.0961 56.3977 86.6841 56.3977 84.5721ZM55.0297 84.5721C55.0297 85.8081 54.8137 87.9921 53.1577 87.9921C51.5137 87.9921 51.2857 85.8081 51.2857 84.5721C51.2857 83.3361 51.5017 81.1521 53.1577 81.1521C54.8137 81.1521 55.0297 83.3361 55.0297 84.5721Z" fill="#8C959D"/>
<path d="M63.5461 84.5721C63.5461 82.5321 62.8141 80.0361 60.3061 80.0361C57.8341 80.0361 57.0781 82.4601 57.0781 84.5721C57.0781 86.6841 57.8341 89.0961 60.3061 89.0961C62.7781 89.0961 63.5461 86.6841 63.5461 84.5721ZM62.1781 84.5721C62.1781 85.8081 61.9621 87.9921 60.3061 87.9921C58.6621 87.9921 58.4341 85.8081 58.4341 84.5721C58.4341 83.3361 58.6501 81.1521 60.3061 81.1521C61.9621 81.1521 62.1781 83.3361 62.1781 84.5721Z" fill="#8C959D"/>
<path d="M64.4906 84.0681V85.0881H68.5706V84.0681H64.4906Z" fill="#8C959D"/>
<path d="M75.9797 84.5721C75.9797 82.5321 75.2477 80.0361 72.7397 80.0361C70.2677 80.0361 69.5117 82.4601 69.5117 84.5721C69.5117 86.6841 70.2677 89.0961 72.7397 89.0961C75.2117 89.0961 75.9797 86.6841 75.9797 84.5721ZM74.6117 84.5721C74.6117 85.8081 74.3957 87.9921 72.7397 87.9921C71.0957 87.9921 70.8677 85.8081 70.8677 84.5721C70.8677 83.3361 71.0837 81.1521 72.7397 81.1521C74.3957 81.1521 74.6117 83.3361 74.6117 84.5721Z" fill="#8C959D"/>
<path d="M83.1282 84.5721C83.1282 82.5321 82.3962 80.0361 79.8882 80.0361C77.4162 80.0361 76.6602 82.4601 76.6602 84.5721C76.6602 86.6841 77.4162 89.0961 79.8882 89.0961C82.3602 89.0961 83.1282 86.6841 83.1282 84.5721ZM81.7602 84.5721C81.7602 85.8081 81.5442 87.9921 79.8882 87.9921C78.2442 87.9921 78.0162 85.8081 78.0162 84.5721C78.0162 83.3361 78.2322 81.1521 79.8882 81.1521C81.5442 81.1521 81.7602 83.3361 81.7602 84.5721Z" fill="#8C959D"/>
<path d="M90.2766 84.5721C90.2766 82.5321 89.5446 80.0361 87.0366 80.0361C84.5646 80.0361 83.8086 82.4601 83.8086 84.5721C83.8086 86.6841 84.5646 89.0961 87.0366 89.0961C89.5086 89.0961 90.2766 86.6841 90.2766 84.5721ZM88.9086 84.5721C88.9086 85.8081 88.6926 87.9921 87.0366 87.9921C85.3926 87.9921 85.1646 85.8081 85.1646 84.5721C85.1646 83.3361 85.3806 81.1521 87.0366 81.1521C88.6926 81.1521 88.9086 83.3361 88.9086 84.5721Z" fill="#8C959D"/>
<path d="M97.425 84.5721C97.425 82.5321 96.693 80.0361 94.185 80.0361C91.713 80.0361 90.957 82.4601 90.957 84.5721C90.957 86.6841 91.713 89.0961 94.185 89.0961C96.657 89.0961 97.425 86.6841 97.425 84.5721ZM96.057 84.5721C96.057 85.8081 95.841 87.9921 94.185 87.9921C92.541 87.9921 92.313 85.8081 92.313 84.5721C92.313 83.3361 92.529 81.1521 94.185 81.1521C95.841 81.1521 96.057 83.3361 96.057 84.5721Z" fill="#8C959D"/>
<path d="M104.573 84.5721C104.573 82.5321 103.841 80.0361 101.333 80.0361C98.8615 80.0361 98.1055 82.4601 98.1055 84.5721C98.1055 86.6841 98.8615 89.0961 101.333 89.0961C103.805 89.0961 104.573 86.6841 104.573 84.5721ZM103.205 84.5721C103.205 85.8081 102.989 87.9921 101.333 87.9921C99.6895 87.9921 99.4615 85.8081 99.4615 84.5721C99.4615 83.3361 99.6775 81.1521 101.333 81.1521C102.989 81.1521 103.205 83.3361 103.205 84.5721Z" fill="#8C959D"/>
<path d="M111.722 84.5721C111.722 82.5321 110.99 80.0361 108.482 80.0361C106.01 80.0361 105.254 82.4601 105.254 84.5721C105.254 86.6841 106.01 89.0961 108.482 89.0961C110.954 89.0961 111.722 86.6841 111.722 84.5721ZM110.354 84.5721C110.354 85.8081 110.138 87.9921 108.482 87.9921C106.838 87.9921 106.61 85.8081 106.61 84.5721C106.61 83.3361 106.826 81.1521 108.482 81.1521C110.138 81.1521 110.354 83.3361 110.354 84.5721Z" fill="#8C959D"/>
<path d="M118.87 84.5721C118.87 82.5321 118.138 80.0361 115.63 80.0361C113.158 80.0361 112.402 82.4601 112.402 84.5721C112.402 86.6841 113.158 89.0961 115.63 89.0961C118.102 89.0961 118.87 86.6841 118.87 84.5721ZM117.502 84.5721C117.502 85.8081 117.286 87.9921 115.63 87.9921C113.986 87.9921 113.758 85.8081 113.758 84.5721C113.758 83.3361 113.974 81.1521 115.63 81.1521C117.286 81.1521 117.502 83.3361 117.502 84.5721Z" fill="#8C959D"/>
<path d="M30.6959 58.9927V65.1368H29.0999V58.9927H30.6959ZM27.3239 59.6167C27.3239 61.0887 26.8799 62.3167 25.9919 63.3007C25.1119 64.2767 23.8399 64.9728 22.1759 65.3888L21.5759 64.1528C22.8159 63.8488 23.7719 63.4128 24.4439 62.8448C25.1239 62.2687 25.5199 61.6087 25.6319 60.8647H22.2119V59.6167H27.3239ZM23.3879 65.6048H30.6959V69.9008H23.3879V65.6048ZM24.9479 68.6648H29.1359V66.8528H24.9479V68.6648Z" fill="#8C959D"/>
<path d="M39.0591 61.3807H32.5551V60.1447H35.0031V58.9688H36.5991V60.1447H39.0711L39.0591 61.3807ZM42.7191 62.3528V63.6608H41.2551V67.2488H39.6711V58.9807H41.2551V62.3528H42.7191ZM38.5191 63.9008C38.5191 64.2207 38.4511 64.5128 38.3151 64.7768C38.1791 65.0328 37.9911 65.2568 37.7511 65.4488C37.5111 65.6328 37.2231 65.7768 36.8871 65.8808C36.5591 65.9848 36.1991 66.0368 35.8071 66.0368C35.4071 66.0368 35.0391 65.9848 34.7031 65.8808C34.3751 65.7768 34.0911 65.6328 33.8511 65.4488C33.6111 65.2568 33.4231 65.0328 33.2871 64.7768C33.1591 64.5128 33.0951 64.2207 33.0951 63.9008C33.0951 63.5887 33.1591 63.3047 33.2871 63.0487C33.4231 62.7847 33.6111 62.5607 33.8511 62.3767C34.0911 62.1847 34.3751 62.0367 34.7031 61.9327C35.0391 61.8287 35.4071 61.7767 35.8071 61.7767C36.1991 61.7767 36.5591 61.8287 36.8871 61.9327C37.2231 62.0367 37.5111 62.1847 37.7511 62.3767C37.9911 62.5607 38.1791 62.7847 38.3151 63.0487C38.4511 63.3047 38.5191 63.5887 38.5191 63.9008ZM34.6071 63.9008C34.6071 64.2048 34.7151 64.4368 34.9311 64.5968C35.1551 64.7568 35.4471 64.8368 35.8071 64.8368C36.1671 64.8368 36.4551 64.7568 36.6711 64.5968C36.8951 64.4368 37.0071 64.2048 37.0071 63.9008C37.0071 63.5968 36.8951 63.3688 36.6711 63.2168C36.4551 63.0568 36.1671 62.9768 35.8071 62.9768C35.4471 62.9768 35.1551 63.0568 34.9311 63.2168C34.7151 63.3688 34.6071 63.5968 34.6071 63.9008ZM35.7111 68.5808H41.6511V69.8408H34.1271V66.6368H35.7111V68.5808Z" fill="#8C959D"/>
<path d="M53.7581 64.7888H52.3781V70.0328H50.7941V58.9807H52.3781V63.4808H53.7581V64.7888ZM50.1821 61.4407H43.6781V60.1927H46.1501V59.0287H47.7341V60.1927H50.1821V61.4407ZM47.7341 66.8288C48.1661 66.8048 48.5861 66.7768 48.9941 66.7448C49.4101 66.7127 49.8221 66.6648 50.2301 66.6008L50.3501 67.7408C49.7661 67.8528 49.1781 67.9408 48.5861 68.0048C47.9941 68.0608 47.4101 68.1048 46.8341 68.1368C46.2661 68.1687 45.7141 68.1888 45.1781 68.1968C44.6421 68.1968 44.1381 68.1968 43.6661 68.1968L43.4741 66.9128C43.8821 66.9128 44.3061 66.9128 44.7461 66.9128C45.1941 66.9128 45.6621 66.9047 46.1501 66.8888V65.9528C45.5741 65.8408 45.1101 65.6088 44.7581 65.2568C44.4141 64.8967 44.2421 64.4648 44.2421 63.9608C44.2421 63.6488 44.3061 63.3648 44.4341 63.1088C44.5701 62.8528 44.7581 62.6328 44.9981 62.4488C45.2381 62.2648 45.5221 62.1248 45.8501 62.0288C46.1861 61.9248 46.5501 61.8728 46.9421 61.8728C47.3421 61.8728 47.7061 61.9248 48.0341 62.0288C48.3621 62.1248 48.6461 62.2648 48.8861 62.4488C49.1261 62.6328 49.3101 62.8528 49.4381 63.1088C49.5741 63.3648 49.6421 63.6488 49.6421 63.9608C49.6421 64.4648 49.4661 64.8967 49.1141 65.2568C48.7701 65.6088 48.3101 65.8408 47.7341 65.9528V66.8288ZM45.7421 63.9608C45.7421 64.2488 45.8501 64.4688 46.0661 64.6208C46.2901 64.7728 46.5821 64.8488 46.9421 64.8488C47.3021 64.8488 47.5901 64.7728 47.8061 64.6208C48.0301 64.4688 48.1421 64.2488 48.1421 63.9608C48.1421 63.6728 48.0301 63.4527 47.8061 63.3007C47.5901 63.1487 47.3021 63.0728 46.9421 63.0728C46.5821 63.0728 46.2901 63.1487 46.0661 63.3007C45.8501 63.4527 45.7421 63.6728 45.7421 63.9608Z" fill="#8C959D"/>
<path d="M21.9134 33.6984L22.4414 34.8314C24.2124 34.5784 25.4444 33.8524 26.0604 32.7964C26.6764 33.8524 27.9084 34.5784 29.6794 34.8314L30.1964 33.6984C28.1284 33.4344 27.0724 32.4664 26.9294 31.4874H29.8004V30.3324H22.2874V31.4874H25.2024C25.0594 32.4664 23.9924 33.4344 21.9134 33.6984ZM30.6364 36.5694V35.4144H21.4844V36.5694H25.3014V39.9684H26.7534V36.5694H30.6364Z" fill="#272B2F"/>
<path d="M39.7875 37.0204V29.8154H38.3245V37.0204H39.7875ZM36.7955 35.5134V30.6184H31.8785V35.5134H36.7955ZM35.3765 31.7624V34.3694H33.3085V31.7624H35.3765ZM40.0405 38.5714H34.4965V36.3824H33.0445V39.7374H40.0405V38.5714Z" fill="#272B2F"/>
<path d="M49.4007 33.7424V32.5984H43.8347V31.2454H49.3457V30.0904H42.3937V33.7424H49.4007ZM50.4457 34.4464H41.2827V35.6344H50.4457V34.4464ZM45.8257 36.2174C43.6367 36.2174 42.3167 36.8884 42.3167 38.0874C42.3167 39.2754 43.6367 39.9464 45.8257 39.9464C48.0147 39.9464 49.3457 39.2754 49.3457 38.0874C49.3457 36.8884 48.0147 36.2174 45.8257 36.2174ZM45.8257 38.8464C44.4507 38.8464 43.7797 38.6154 43.7797 38.0874C43.7797 37.5704 44.4617 37.3174 45.8257 37.3174C47.1897 37.3174 47.8717 37.5704 47.8717 38.0874C47.8717 38.6154 47.2007 38.8464 45.8257 38.8464Z" fill="#272B2F"/>
<path d="M60.3448 35.2384H56.4838V34.5124H59.4318V33.4124H53.7448V32.7524H59.2228V30.0134H52.2928V31.1134H57.7928V31.7294H52.3148V34.5124H55.0318V35.2384H51.1708V36.3934H60.3448V35.2384ZM52.1828 36.9654V38.1094H57.8368V39.9134H59.2888V36.9654H52.1828Z" fill="#272B2F"/>
<path d="M61.4659 32.9724L61.9499 34.1054C63.9409 33.9294 65.1069 33.2254 65.6459 32.2574C66.1739 33.2254 67.3399 33.9294 69.3309 34.1054L69.8369 32.9724C67.9009 32.7964 66.9219 32.1474 66.6909 31.4434H69.3969V30.2884H61.9059V31.4434H64.6009C64.3699 32.1474 63.3799 32.7964 61.4659 32.9724ZM70.2219 34.4904H61.0699V35.6344H70.2219V34.4904ZM65.6239 36.1844C63.4349 36.1844 62.1149 36.8774 62.1149 38.0654C62.1149 39.2644 63.4349 39.9574 65.6239 39.9574C67.8129 39.9574 69.1439 39.2644 69.1439 38.0654C69.1439 36.8774 67.8129 36.1844 65.6239 36.1844ZM65.6239 38.8354C64.2599 38.8354 63.5779 38.5824 63.5779 38.0654C63.5779 37.5374 64.2489 37.3064 65.6239 37.3064C66.9989 37.3064 67.6699 37.5374 67.6699 38.0654C67.6699 38.5824 66.9879 38.8354 65.6239 38.8354Z" fill="#272B2F"/>
</g>
<defs>
<clipPath id="clip0_76_33807">
<rect width="244" height="150" fill="white"/>
</clipPath>
</defs>
</svg>
