<svg width="45" height="44" viewBox="0 0 45 44" fill="none" xmlns="http://www.w3.org/2000/svg">
<rect x="4.5" y="34.0957" width="34" height="1.4" fill="#E2E5EA"/>
<path d="M12.8234 20.3966L22.7229 30.2961L23.7128 29.3061L13.8133 19.4066L12.8234 20.3966Z" fill="#E2E5EA"/>
<path d="M23.7128 29.3061L25.127 27.8919L24.1371 26.902L22.7229 28.3162L23.7128 29.3061Z" fill="#E2E5EA"/>
<path d="M27.2484 25.7706L25.8341 27.1848L24.8442 26.1949L26.2584 24.7806L27.2484 25.7706Z" fill="#E2E5EA"/>
<path d="M27.9555 25.0635L29.3697 23.6493L28.3797 22.6593L26.9655 24.0735L27.9555 25.0635Z" fill="#E2E5EA"/>
<path d="M31.491 21.5279L30.0768 22.9422L29.0869 21.9522L30.5011 20.538L31.491 21.5279Z" fill="#E2E5EA"/>
<path d="M32.1982 20.8209L33.6124 19.4066L32.6224 18.4167L31.2082 19.8309L32.1982 20.8209Z" fill="#E2E5EA"/>
<path d="M36.4528 16.5662L34.4761 18.5429L33.4862 17.553L35.7055 15.3336L32.4528 15.3336L32.4528 13.9336L37.1528 13.9336C37.5394 13.9336 37.8528 14.247 37.8528 14.6336L37.8528 19.3336L36.4528 19.3336V16.5662Z" fill="#E2E5EA"/>
<path d="M14.8234 11.8325C18.8734 10.9419 18.6805 8.67465 19.3234 7.0957C19.9662 8.67465 19.7734 10.9419 23.8234 11.8325C19.7734 12.8649 19.3234 15.7321 19.3234 17.0957C19.3234 15.7321 17.9734 12.4803 14.8234 11.8325Z" fill="#E2E5EA"/>
<path d="M4.17664 23.9381C6.42664 23.4036 6.31949 22.0433 6.67664 21.0959C7.03378 22.0433 6.92664 23.4036 9.17664 23.9381C6.92664 24.5575 6.67664 26.2778 6.67664 27.0959C6.67664 26.2778 5.92664 24.3267 4.17664 23.9381Z" fill="#E2E5EA"/>
</svg>
