<svg width="40" height="40" viewBox="0 0 40 40" fill="none" xmlns="http://www.w3.org/2000/svg">
<path fill-rule="evenodd" clip-rule="evenodd" d="M35.5556 20C35.5556 11.4089 28.5911 4.44444 20 4.44444C11.4089 4.44444 4.44445 11.4089 4.44445 20C4.44445 28.5911 11.4089 35.5556 20 35.5556C28.5911 35.5556 35.5556 28.5911 35.5556 20ZM20 -8.74228e-07C31.0457 -3.91405e-07 40 8.9543 40 20C40 31.0457 31.0457 40 20 40C8.9543 40 -1.35705e-06 31.0457 -8.74228e-07 20C-3.91405e-07 8.9543 8.95431 -1.35705e-06 20 -8.74228e-07Z" fill="white"/>
<path fill-rule="evenodd" clip-rule="evenodd" d="M20.0001 4.44444C23.9467 4.44444 27.5453 5.91126 30.2888 8.33275C31.209 9.1449 32.6133 9.05734 33.4254 8.13719C34.2376 7.21703 34.15 5.81272 33.2298 5.00058C29.7055 1.88995 25.0708 0 20.0001 0C14.9294 0 10.2947 1.88995 6.77037 5.00058C5.85021 5.81272 5.76265 7.21703 6.5748 8.13718C7.38694 9.05734 8.79125 9.1449 9.7114 8.33275C12.4549 5.91126 16.0535 4.44444 20.0001 4.44444Z" fill="#FA6600"/>
</svg>
