<svg width="44" height="44" viewBox="0 0 44 44" fill="none" xmlns="http://www.w3.org/2000/svg">
<rect x="10.675" y="5.45005" width="22.375" height="33.925" rx="1.6" fill="white" stroke="#272B2F" stroke-width="1.2" stroke-linejoin="round"/>
<rect x="12.925" y="12.375" width="17.875" height="19.25" fill="#FF8F4C"/>
<ellipse cx="21.6562" cy="35.2687" rx="1.58125" ry="1.58125" fill="#FF8F4C"/>
<rect x="18.5623" y="9.3501" width="6.1875" height="0.9625" rx="0.48125" fill="#272B2F"/>
<circle cx="33.6875" cy="35.8875" r="6.9625" fill="white" stroke="#272B2F" stroke-width="1.2"/>
<path d="M36.6774 33.7078C36.3753 33.4057 35.8855 33.4057 35.5834 33.7078L32.8125 36.4786L31.2266 34.8927C30.9245 34.5906 30.4347 34.5906 30.1326 34.8927C29.8305 35.1948 29.8305 35.6847 30.1326 35.9868L32.2655 38.1197C32.5676 38.4218 33.0574 38.4218 33.3595 38.1197L36.6774 34.8018C36.9795 34.4997 36.9795 34.0099 36.6774 33.7078Z" fill="#FF8F4C"/>
</svg>
