<?xml version="1.0" standalone="no"?>
<!DOCTYPE svg PUBLIC "-//W3C//DTD SVG 20010904//EN"
 "http://www.w3.org/TR/2001/REC-SVG-20010904/DTD/svg10.dtd">
<svg version="1.0" xmlns="http://www.w3.org/2000/svg"
 width="48.000000pt" height="48.000000pt" viewBox="0 0 1280.000000 1280.000000"
 preserveAspectRatio="xMidYMid meet">
<g transform="translate(0.000000,1280.000000) scale(0.100000,-0.100000)"
fill="white" stroke="none">
<path d="M6130 12790 c-47 -5 -175 -16 -285 -25 -227 -19 -469 -52 -683 -94
l-147 -30 -44 -48 c-24 -26 -83 -107 -130 -178 -539 -815 -843 -2152 -932
-4100 -13 -283 -14 -1475 -2 -1518 8 -25 60 62 567 940 307 532 565 976 574
986 32 36 603 389 989 611 1292 741 2502 1262 3477 1496 425 102 797 150 1165
150 l174 0 -24 26 c-42 46 -270 247 -389 345 -681 557 -1491 977 -2333 1209
-417 115 -828 183 -1317 221 -193 15 -554 19 -660 9z"/>
<path d="M4470 12494 c-342 -109 -621 -223 -960 -395 -1499 -757 -2650 -2094
-3179 -3691 l-32 -96 36 -89 c396 -956 1584 -2061 3425 -3185 414 -253 1063
-619 1075 -606 1 2 -252 443 -563 982 l-565 978 -8 147 c-5 80 -12 409 -15
731 -10 834 15 1448 86 2146 133 1301 416 2342 815 2999 74 121 81 135 69 135
-5 -1 -88 -26 -184 -56z"/>
<path d="M10265 10745 c-1046 -113 -2424 -641 -4005 -1532 -212 -120 -723
-424 -760 -453 -25 -19 -15 -20 1103 -20 l1127 0 93 -46 c578 -291 1381 -763
2013 -1184 1342 -895 2300 -1811 2699 -2582 25 -48 49 -89 54 -92 4 -3 22 57
40 132 67 286 119 631 141 932 6 80 15 192 20 250 13 136 13 343 0 500 -35
425 -43 512 -65 668 -135 939 -480 1837 -1008 2627 -168 251 -371 514 -542
701 l-74 81 -73 13 c-111 18 -606 22 -763 5z"/>
<path d="M7972 8348 c8 -13 264 -454 568 -981 l553 -959 10 -176 c15 -254 15
-1594 -1 -1877 -36 -667 -84 -1167 -158 -1645 -157 -1016 -394 -1766 -741
-2343 -36 -60 -63 -110 -60 -113 7 -7 311 90 494 159 245 92 372 148 613 269
1121 559 2040 1421 2680 2513 183 313 396 779 520 1141 l52 151 -36 87 c-130
313 -335 632 -618 962 -749 874 -2057 1843 -3711 2748 -86 47 -162 86 -168 86
-7 0 -6 -8 3 -22z"/>
<path d="M181 7880 c-72 -310 -122 -627 -146 -925 -8 -104 -20 -240 -25 -301
-13 -140 -13 -374 -1 -501 6 -54 15 -168 21 -253 46 -632 196 -1276 440 -1885
92 -231 301 -654 427 -865 219 -366 507 -759 746 -1016 55 -60 59 -62 129 -74
110 -18 534 -25 690 -11 1168 106 2779 751 4588 1838 127 76 240 146 253 155
21 17 -35 18 -1107 18 l-1130 0 -237 124 c-1082 569 -2101 1222 -2892 1855
-780 623 -1344 1236 -1645 1786 -93 169 -85 165 -111 55z"/>
<path d="M8322 5057 c-309 -536 -570 -981 -580 -989 -27 -25 -409 -263 -637
-400 -1619 -966 -3114 -1596 -4230 -1782 -274 -46 -426 -59 -682 -60 -157 -1
-242 -5 -240 -11 2 -5 57 -59 122 -119 1057 -970 2420 -1564 3825 -1666 85 -6
199 -15 253 -21 125 -12 369 -12 494 0 54 6 168 15 253 21 250 18 565 63 815
115 82 17 103 37 217 200 304 437 549 1092 712 1905 130 647 206 1337 247
2240 13 287 15 1470 2 1513 -8 26 -59 -60 -571 -946z"/>
</g>
</svg>
